<svg xmlns="http://www.w3.org/2000/svg" xmlns:xlink="http://www.w3.org/1999/xlink" width="465.257" height="86.491" viewBox="0 0 465.257 86.491">
  <defs>
    <clipPath id="clip-path">
      <rect id="Rectangle_23" data-name="Rectangle 23" width="465.257" height="86.491" fill="none"/>
    </clipPath>
  </defs>
  <g id="Group_100" data-name="Group 100" transform="translate(0 0)">
    <g id="Group_99" data-name="Group 99" transform="translate(0 0)" clip-path="url(#clip-path)">
      <path id="Path_221" data-name="Path 221" d="M201.125,25.948a42.221,42.221,0,0,0-9.217-13.494,44.337,44.337,0,0,0-13.6-9.136,43,43,0,0,0-36.021,1.335A42.676,42.676,0,0,0,127.461,17.3a43.025,43.025,0,0,0-14.736-12.65,34.633,34.633,0,0,0-8.2-3.154V19.37l-.108-.02a22.8,22.8,0,0,1,7.172,5.073A26.108,26.108,0,0,1,117.1,32.6a25.242,25.242,0,0,1,1.988,9.986V85.351h16.92V42.586a24.964,24.964,0,0,1,2-9.986A25.8,25.8,0,0,1,151.7,18.915a24.922,24.922,0,0,1,9.981-2,25.97,25.97,0,0,1,18.343,7.507,26.127,26.127,0,0,1,5.512,8.177,25.051,25.051,0,0,1,2,9.986V85.351h16.915V42.586a41.479,41.479,0,0,0-3.323-16.638" transform="translate(28.332 -0.001)" fill="#fff"/>
      <path id="Path_222" data-name="Path 222" d="M115.59.525C106.577,1.344,99.2,7.9,95.106,12S57.49,60.4,57.523,60.5A20.081,20.081,0,0,1,40.8,67.7c-10.7,0-18.385-7.3-18.385-19.266V.1H0V48.438C0,71.733,15.866,86.466,40.671,86.466c10.918,0,20.031-2.887,26.806-8.119h0a12.645,12.645,0,0,0,2.328-1.977,32.214,32.214,0,0,0,3.791-4.2C84.926,58.822,105.757,29.2,105.757,29.2a25.633,25.633,0,0,1,24.58-10.036V1.263A45.813,45.813,0,0,0,115.59.525" transform="translate(0 0.026)" fill="#fff"/>
      <path id="Path_223" data-name="Path 223" d="M81.643,0H59.355V31.954L81.643,4.481Z" transform="translate(16.105 -0.001)" fill="#fff"/>
      <path id="Path_224" data-name="Path 224" d="M59.355,75.619H81.643V35.866L59.355,65.207Z" transform="translate(16.105 9.731)" fill="#fff"/>
      <path id="Path_225" data-name="Path 225" d="M218.854,37.846c0,4.949-3.29,8.079-8.534,8.079-5.27,0-8.641-3.13-8.641-8.079V26.985h4.762V37.846a3.774,3.774,0,0,0,3.906,4.094c2.248,0,3.772-1.552,3.772-4.094V26.985h4.736Z" transform="translate(54.722 7.321)" fill="#fff"/>
      <path id="Path_226" data-name="Path 226" d="M230.963,45.711,222.348,34.18V45.711h-4.467V26.985h4.2l8.641,11.556V26.985h4.441V45.711Z" transform="translate(59.118 7.321)" fill="#fff"/>
      <rect id="Rectangle_21" data-name="Rectangle 21" width="4.762" height="18.727" transform="translate(298.027 34.306)" fill="#fff"/>
      <path id="Path_227" data-name="Path 227" d="M246.9,45.711l-7.277-18.727H244.7l4.789,13.777,4.789-13.777h4.9l-7.357,18.727Z" transform="translate(65.016 7.321)" fill="#fff"/>
      <path id="Path_228" data-name="Path 228" d="M261.214,30.73v3.719h8.935v3.745h-8.935v3.772h10.192v3.745H256.452V26.985h14.661V30.73Z" transform="translate(69.584 7.321)" fill="#fff"/>
      <path id="Path_229" data-name="Path 229" d="M279.142,40.441H275.4v5.27h-4.761V26.984h8.373c4.949,0,7.786,2.355,7.786,6.528a6.242,6.242,0,0,1-3.4,6.02l3.932,6.179h-5.4Zm-.133-3.745c2.06,0,3.264-1.044,3.264-3.023,0-1.953-1.2-2.943-3.264-2.943H275.4V36.7Z" transform="translate(73.432 7.321)" fill="#fff"/>
      <path id="Path_230" data-name="Path 230" d="M300.753,28.9l-1.793,3.719a13.951,13.951,0,0,0-5.993-1.953c-1.231,0-2.06.455-2.06,1.364,0,3.237,9.9,1.391,9.9,8.159,0,3.745-3.317,5.725-7.491,5.725a13.973,13.973,0,0,1-8.561-3l1.846-3.665a11.679,11.679,0,0,0,6.769,2.808c1.5,0,2.435-.562,2.435-1.631,0-3.318-9.9-1.339-9.9-7.973,0-3.452,2.97-5.645,7.464-5.645a14.058,14.058,0,0,1,7.384,2.086" transform="translate(77.263 7.276)" fill="#fff"/>
      <rect id="Rectangle_22" data-name="Rectangle 22" width="4.762" height="18.727" transform="translate(380.665 34.306)" fill="#fff"/>
      <path id="Path_231" data-name="Path 231" d="M314.166,26.985c5.886,0,9.952,3.8,9.952,9.363,0,5.538-4.119,9.363-10.139,9.363h-7.866V26.985Zm-3.29,14.928h3.4c2.916,0,5-2.248,5-5.538,0-3.317-2.194-5.591-5.218-5.591h-3.183Z" transform="translate(83.058 7.321)" fill="#fff"/>
      <path id="Path_232" data-name="Path 232" d="M326.535,42.26l-1.364,3.45h-4.9l8.079-18.727h4.9l7.892,18.727H336.06l-1.337-3.45Zm4.12-10.541-2.728,6.929h5.4Z" transform="translate(86.901 7.321)" fill="#fff"/>
      <path id="Path_233" data-name="Path 233" d="M346.109,26.985c5.886,0,9.952,3.8,9.952,9.363,0,5.538-4.119,9.363-10.139,9.363h-7.866V26.985Zm-3.29,14.928h3.4c2.916,0,5-2.248,5-5.538,0-3.317-2.194-5.591-5.218-5.591h-3.183Z" transform="translate(91.726 7.321)" fill="#fff"/>
      <path id="Path_234" data-name="Path 234" d="M358.959,30.73v3.719h8.935v3.745h-8.935v3.772h10.192v3.745H354.2V26.985h14.661V30.73Z" transform="translate(96.105 7.321)" fill="#fff"/>
      <path id="Path_235" data-name="Path 235" d="M218.3,70.969,218.276,58.8l-4.494,10.3h-3.1l-4.494-10.3V70.969h-4.254V52.215h5.216l5.083,11.156,5.083-11.156H222.5V70.969Z" transform="translate(54.79 14.167)" fill="#fff"/>
      <path id="Path_236" data-name="Path 236" d="M225.761,67.512l-1.364,3.45h-4.9l8.079-18.727h4.9l7.892,18.727h-5.083l-1.337-3.45Zm4.12-10.541L227.153,63.9h5.4Z" transform="translate(59.558 14.173)" fill="#fff"/>
      <path id="Path_237" data-name="Path 237" d="M245.789,65.693h-3.745v5.27h-4.761V52.236h8.373c4.949,0,7.786,2.355,7.786,6.528a6.242,6.242,0,0,1-3.4,6.02l3.932,6.179h-5.4Zm-.133-3.745c2.06,0,3.263-1.044,3.263-3.023,0-1.953-1.2-2.943-3.263-2.943h-3.612v5.966Z" transform="translate(64.383 14.173)" fill="#fff"/>
      <path id="Path_238" data-name="Path 238" d="M259.767,63.606l-2.488,2.755v4.6h-4.762V52.237h4.762v8.106l7.169-8.106h5.511L263,59.994l7.411,10.969h-5.7Z" transform="translate(68.516 14.173)" fill="#fff"/>
      <path id="Path_239" data-name="Path 239" d="M272.866,63.1V52.237h4.762V63.1a3.773,3.773,0,0,0,3.906,4.094c2.246,0,3.772-1.552,3.772-4.094V52.237h4.736V63.1c0,4.949-3.292,8.079-8.534,8.079-5.271,0-8.641-3.13-8.641-8.079" transform="translate(74.037 14.173)" fill="#fff"/>
      <path id="Path_240" data-name="Path 240" d="M297.227,52.236c4.789,0,7.545,2.355,7.545,6.528,0,4.387-2.756,6.929-7.545,6.929h-3.4v5.27h-4.762V52.236Zm-3.4,9.712h3.157c2.088,0,3.29-1.044,3.29-3.023,0-1.953-1.2-2.943-3.29-2.943H293.83Z" transform="translate(78.433 14.173)" fill="#fff"/>
    </g>
  </g>
</svg>
